<?xml version="1.0" encoding="UTF-8" standalone="no"?><!DOCTYPE svg PUBLIC "-//W3C//DTD SVG 1.1//EN" "http://www.w3.org/Graphics/SVG/1.1/DTD/svg11.dtd"><svg width="100%" height="100%" viewBox="0 0 592 592" version="1.1" xmlns="http://www.w3.org/2000/svg" xmlns:xlink="http://www.w3.org/1999/xlink" xml:space="preserve" xmlns:serif="http://www.serif.com/" style="fill-rule:evenodd;clip-rule:evenodd;stroke-linejoin:round;stroke-miterlimit:2;"><g id="图层-1" serif:id="图层 1"><path d="M373.229,259.37l-30.942,285.742c83.642,-15.592 152.746,-72.471 185.288,-148.737l-154.346,-137.005Z" style="fill:#106eb8;fill-rule:nonzero;"/><path d="M295.873,45.832c-139.071,-0 -251.813,112.741 -251.813,251.812c0,8.042 0.417,15.988 1.155,23.838l192.595,-155.859l45.559,383.45c3.629,0.175 7.262,0.321 10.929,0.342l45.596,-383.796l205.416,166.234c1.521,-11.196 2.375,-22.6 2.375,-34.209c0,-139.071 -112.741,-251.812 -251.812,-251.812" style="fill:#106eb8;fill-rule:nonzero;"/><path d="M204.478,259.374l-143.971,127.796c29.067,76.345 94.18,134.862 174.571,154.8l-30.6,-282.596Z" style="fill:#106eb8;fill-rule:nonzero;"/></g></svg>